<svg width="179" height="30" viewBox="0 0 179 30" fill="none" xmlns="http://www.w3.org/2000/svg">
<path d="M14.196 23.024L17.292 26.84C15.42 28.64 13.2 29.54 10.632 29.54C7.944 29.54 5.664 28.604 3.792 26.732C1.92 24.86 0.984 22.58 0.984 19.892C0.984 17.228 1.92 14.96 3.792 13.088C5.688 11.216 7.968 10.28 10.632 10.28C13.08 10.28 15.216 11.108 17.04 12.764L14.124 16.688C13.188 15.656 12.024 15.14 10.632 15.14C9.312 15.14 8.184 15.608 7.248 16.544C6.312 17.456 5.844 18.572 5.844 19.892C5.844 21.212 6.312 22.34 7.248 23.276C8.184 24.212 9.312 24.68 10.632 24.68C12.072 24.68 13.26 24.128 14.196 23.024ZM37.7231 29L36.6791 26.192C34.7591 28.448 32.3111 29.576 29.3351 29.576C27.2951 29.576 25.4471 29 23.7911 27.848C22.1591 26.696 20.9951 25.16 20.2991 23.24C19.9151 22.208 19.7231 21.116 19.7231 19.964C19.7231 17.924 20.2991 16.088 21.4511 14.456C22.6031 12.8 24.1391 11.624 26.0591 10.928C27.1631 10.52 28.2671 10.316 29.3711 10.316C31.4111 10.316 33.2471 10.904 34.8791 12.08C36.5351 13.232 37.7111 14.768 38.4071 16.688L42.8711 29H37.7231ZM26.6351 23.852C27.4511 24.428 28.3511 24.716 29.3351 24.716C30.6551 24.716 31.7831 24.26 32.7191 23.348C33.6551 22.412 34.1231 21.284 34.1231 19.964C34.1231 18.308 33.4391 17 32.0711 16.04C31.2551 15.488 30.3431 15.212 29.3351 15.212C27.6551 15.212 26.3591 15.884 25.4471 17.228C24.8711 18.068 24.5831 18.98 24.5831 19.964C24.5831 21.62 25.2671 22.916 26.6351 23.852ZM45.3863 19.892C45.3863 17.228 46.3223 14.96 48.1943 13.088C50.0903 11.216 52.3703 10.28 55.0343 10.28V15.14C53.7143 15.14 52.5863 15.608 51.6503 16.544C50.7143 17.456 50.2463 18.572 50.2463 19.892V29H45.3863V19.892ZM56.9409 6.176C56.9409 5.36 57.2169 4.676 57.7689 4.124C58.3449 3.572 59.0409 3.296 59.8569 3.296C60.6489 3.296 61.3209 3.584 61.8729 4.16C62.4489 4.712 62.7369 5.384 62.7369 6.176C62.7369 6.992 62.4609 7.688 61.9089 8.264C61.3569 8.816 60.6729 9.092 59.8569 9.092C59.0409 9.092 58.3449 8.816 57.7689 8.264C57.2169 7.688 56.9409 6.992 56.9409 6.176ZM57.4449 10.316H62.3049V29H57.4449V10.316ZM71.7046 29.324C70.5766 29.3 69.3406 29.048 67.9966 28.568C66.6526 28.064 65.5726 27.464 64.7566 26.768L67.4566 23.276C68.7526 24.5 70.1326 25.112 71.5966 25.112H71.7046C72.3286 25.112 72.8686 25.004 73.3246 24.788C73.9486 24.5 74.2606 24.092 74.2606 23.564V23.42C74.1886 22.868 73.8166 22.472 73.1446 22.232C72.9286 22.184 72.3646 22.076 71.4526 21.908C70.3726 21.692 69.4606 21.428 68.7166 21.116C66.5326 20.18 65.4406 18.536 65.4406 16.184C65.4406 13.928 66.5566 12.236 68.7886 11.108C69.7726 10.604 70.8406 10.34 71.9926 10.316C73.1446 10.292 74.3806 10.496 75.7006 10.928C77.2126 11.432 78.2806 12.092 78.9046 12.908L75.6646 15.824C75.1606 15.32 74.6926 14.984 74.2606 14.816C73.8526 14.648 73.4086 14.564 72.9286 14.564C71.3926 14.564 70.6246 15.068 70.6246 16.076V16.148C70.6246 16.46 70.8406 16.736 71.2726 16.976C71.7046 17.192 72.9046 17.48 74.8726 17.84C77.8966 18.416 79.4086 20.264 79.4086 23.384V23.492C79.4086 24.644 79.0246 25.688 78.2566 26.624C76.7206 28.496 74.5366 29.396 71.7046 29.324ZM101.21 29H96.3497L96.3137 19.892C96.3137 18.596 95.8457 17.48 94.9097 16.544C93.9737 15.608 92.8577 15.14 91.5617 15.14C90.2417 15.14 89.1137 15.608 88.1777 16.544C87.2417 17.456 86.7737 18.572 86.7737 19.892V29H81.9137V19.892C81.9137 17.228 82.8497 14.96 84.7217 13.088C86.6177 11.216 88.8977 10.28 91.5617 10.28C94.2257 10.28 96.5057 11.24 98.4017 13.16C100.298 11.24 102.578 10.28 105.242 10.28C107.906 10.28 110.174 11.216 112.046 13.088C113.942 14.96 114.89 17.228 114.89 19.892V29H110.03L109.994 19.892C109.994 18.572 109.526 17.456 108.59 16.544C107.678 15.608 106.562 15.14 105.242 15.14C103.466 15.14 102.11 15.896 101.174 17.408L101.21 17.444V29ZM135.422 29L134.378 26.192C132.458 28.448 130.01 29.576 127.034 29.576C124.994 29.576 123.146 29 121.49 27.848C119.858 26.696 118.694 25.16 117.998 23.24C117.614 22.208 117.422 21.116 117.422 19.964C117.422 17.924 117.998 16.088 119.15 14.456C120.302 12.8 121.838 11.624 123.758 10.928C124.862 10.52 125.966 10.316 127.07 10.316C129.11 10.316 130.946 10.904 132.578 12.08C134.234 13.232 135.41 14.768 136.106 16.688L140.57 29H135.422ZM124.334 23.852C125.15 24.428 126.05 24.716 127.034 24.716C128.354 24.716 129.482 24.26 130.418 23.348C131.354 22.412 131.822 21.284 131.822 19.964C131.822 18.308 131.138 17 129.77 16.04C128.954 15.488 128.042 15.212 127.034 15.212C125.354 15.212 124.058 15.884 123.146 17.228C122.57 18.068 122.282 18.98 122.282 19.964C122.282 21.62 122.966 22.916 124.334 23.852ZM152.734 10.316V14.456H147.946V19.388C147.946 20.708 148.414 21.836 149.35 22.772C150.286 23.684 151.414 24.14 152.734 24.14V29C150.07 29 147.79 28.064 145.894 26.192C144.022 24.32 143.086 22.052 143.086 19.388V0.487998H147.946V10.316H152.734ZM154.675 6.176C154.675 5.36 154.951 4.676 155.503 4.124C156.079 3.572 156.775 3.296 157.591 3.296C158.383 3.296 159.055 3.584 159.607 4.16C160.183 4.712 160.471 5.384 160.471 6.176C160.471 6.992 160.195 7.688 159.643 8.264C159.091 8.816 158.407 9.092 157.591 9.092C156.775 9.092 156.079 8.816 155.503 8.264C154.951 7.688 154.675 6.992 154.675 6.176ZM155.179 10.316H160.039V29H155.179V10.316ZM175.739 23.024L178.835 26.84C176.963 28.64 174.743 29.54 172.175 29.54C169.487 29.54 167.207 28.604 165.335 26.732C163.463 24.86 162.527 22.58 162.527 19.892C162.527 17.228 163.463 14.96 165.335 13.088C167.231 11.216 169.511 10.28 172.175 10.28C174.623 10.28 176.759 11.108 178.583 12.764L175.667 16.688C174.731 15.656 173.567 15.14 172.175 15.14C170.855 15.14 169.727 15.608 168.791 16.544C167.855 17.456 167.387 18.572 167.387 19.892C167.387 21.212 167.855 22.34 168.791 23.276C169.727 24.212 170.855 24.68 172.175 24.68C173.615 24.68 174.803 24.128 175.739 23.024Z" fill="white"/>
</svg>
