<svg width="16" height="16" viewBox="0 0 16 16" fill="none" xmlns="http://www.w3.org/2000/svg">
<g clip-path="url(#clip0_9_22)">
<path d="M8.66796 0.666755C8.66796 0.489944 8.7382 0.320374 8.86322 0.19535C8.98825 0.070326 9.15781 8.80826e-05 9.33463 8.80826e-05C11.1021 0.00202915 12.7967 0.705031 14.0465 1.95485C15.2963 3.20468 15.9994 4.89924 16.0013 6.66676C16.0013 6.84357 15.9311 7.01314 15.806 7.13816C15.681 7.26318 15.5114 7.33342 15.3346 7.33342C15.1578 7.33342 14.9882 7.26318 14.8632 7.13816C14.7382 7.01314 14.668 6.84357 14.668 6.66676C14.6664 5.25275 14.104 3.89712 13.1041 2.89727C12.1043 1.89742 10.7486 1.33501 9.33463 1.33342C9.15781 1.33342 8.98825 1.26318 8.86322 1.13816C8.7382 1.01314 8.66796 0.843566 8.66796 0.666755ZM9.33463 4.00009C10.0419 4.00009 10.7201 4.28104 11.2202 4.78114C11.7203 5.28123 12.0013 5.95951 12.0013 6.66676C12.0013 6.84357 12.0715 7.01314 12.1966 7.13816C12.3216 7.26318 12.4911 7.33342 12.668 7.33342C12.8448 7.33342 13.0143 7.26318 13.1394 7.13816C13.2644 7.01314 13.3346 6.84357 13.3346 6.66676C13.3336 5.60621 12.9118 4.58941 12.1619 3.8395C11.412 3.08958 10.3952 2.66781 9.33463 2.66675C9.15781 2.66675 8.98825 2.73699 8.86322 2.86202C8.7382 2.98704 8.66796 3.15661 8.66796 3.33342C8.66796 3.51023 8.7382 3.6798 8.86322 3.80483C8.98825 3.92985 9.15781 4.00009 9.33463 4.00009ZM15.3966 11.1594C15.783 11.5468 15.9999 12.0716 15.9999 12.6188C15.9999 13.1659 15.783 13.6907 15.3966 14.0781L14.79 14.7774C9.32996 20.0048 -3.95671 6.72142 1.18996 1.24409L1.95663 0.577421C2.34447 0.201873 2.86458 -0.0058792 3.40443 -0.000888689C3.94428 0.00410182 4.46046 0.221434 4.84129 0.604088C4.86196 0.624755 6.09729 2.22942 6.09729 2.22942C6.46385 2.61451 6.6679 3.12604 6.66703 3.65769C6.66616 4.18934 6.46044 4.7002 6.09263 5.08409L5.32063 6.05476C5.74786 7.09283 6.376 8.03625 7.16897 8.83082C7.96193 9.62538 8.90408 10.2554 9.94129 10.6848L10.918 9.90809C11.3019 9.54056 11.8127 9.33508 12.3442 9.33434C12.8756 9.3336 13.387 9.53764 13.772 9.90409C13.772 9.90409 15.376 11.1388 15.3966 11.1594ZM14.4793 12.1288C14.4793 12.1288 12.884 10.9014 12.8633 10.8808C12.7259 10.7446 12.5404 10.6682 12.347 10.6682C12.1535 10.6682 11.968 10.7446 11.8306 10.8808C11.8126 10.8994 10.468 11.9708 10.468 11.9708C10.3773 12.0429 10.2695 12.0902 10.1551 12.1079C10.0406 12.1257 9.92351 12.1133 9.81529 12.0721C8.4716 11.5718 7.25112 10.7886 6.23652 9.77547C5.22191 8.76237 4.43689 7.54304 3.93463 6.20009C3.89009 6.09039 3.87557 5.97081 3.89256 5.85365C3.90955 5.73648 3.95744 5.62595 4.03129 5.53342C4.03129 5.53342 5.10263 4.18809 5.12063 4.17075C5.2568 4.03341 5.33321 3.84783 5.33321 3.65442C5.33321 3.46101 5.2568 3.27543 5.12063 3.13809C5.09996 3.11809 3.87263 1.52142 3.87263 1.52142C3.73323 1.39643 3.5513 1.32949 3.36412 1.33432C3.17695 1.33915 2.99872 1.4154 2.86596 1.54742L2.09929 2.21409C-1.66204 6.73675 9.85196 17.6121 13.8153 13.8668L14.4226 13.1668C14.5649 13.0349 14.6504 12.8529 14.661 12.6592C14.6716 12.4655 14.6064 12.2753 14.4793 12.1288Z" fill="white"/>
</g>
<defs>
<clipPath id="clip0_9_22">
<rect width="16" height="16" fill="white"/>
</clipPath>
</defs>
</svg>
